<svg width="30" height="28" viewBox="0 0 30 28" fill="none" xmlns="http://www.w3.org/2000/svg">
<path d="M12.2109 16.3398H15.7148C15.6445 17.4883 15.3281 18.5078 14.7656 19.3984C14.2109 20.2891 13.4336 20.9844 12.4336 21.4844C11.4414 21.9844 10.2461 22.2344 8.84766 22.2344C7.75391 22.2344 6.77344 22.0469 5.90625 21.6719C5.03906 21.2891 4.29688 20.7422 3.67969 20.0312C3.07031 19.3203 2.60547 18.4609 2.28516 17.4531C1.96484 16.4453 1.80469 15.3164 1.80469 14.0664V12.8828C1.80469 11.6328 1.96875 10.5039 2.29688 9.49609C2.63281 8.48047 3.10938 7.61719 3.72656 6.90625C4.35156 6.19531 5.09766 5.64844 5.96484 5.26562C6.83203 4.88281 7.80078 4.69141 8.87109 4.69141C10.293 4.69141 11.4922 4.94922 12.4688 5.46484C13.4531 5.98047 14.2148 6.69141 14.7539 7.59766C15.3008 8.50391 15.6289 9.53516 15.7383 10.6914H12.2227C12.1836 10.0039 12.0469 9.42188 11.8125 8.94531C11.5781 8.46094 11.2227 8.09766 10.7461 7.85547C10.2773 7.60547 9.65234 7.48047 8.87109 7.48047C8.28516 7.48047 7.77344 7.58984 7.33594 7.80859C6.89844 8.02734 6.53125 8.35938 6.23438 8.80469C5.9375 9.25 5.71484 9.8125 5.56641 10.4922C5.42578 11.1641 5.35547 11.9531 5.35547 12.8594V14.0664C5.35547 14.9492 5.42188 15.7266 5.55469 16.3984C5.6875 17.0625 5.89062 17.625 6.16406 18.0859C6.44531 18.5391 6.80469 18.8828 7.24219 19.1172C7.6875 19.3438 8.22266 19.457 8.84766 19.457C9.58203 19.457 10.1875 19.3398 10.6641 19.1055C11.1406 18.8711 11.5039 18.5234 11.7539 18.0625C12.0117 17.6016 12.1641 17.0273 12.2109 16.3398ZM29.4727 19.2578V22H20.3906V19.2578H29.4727ZM21.5391 4.9375V22H18.0234V4.9375H21.5391ZM28.2891 11.8867V14.5586H20.3906V11.8867H28.2891ZM29.4609 4.9375V7.69141H20.3906V4.9375H29.4609Z" fill="white"/>
</svg>
